<svg id="visual" viewBox="0 0 900 600" width="900" height="600" xmlns="http://www.w3.org/2000/svg" xmlns:xlink="http://www.w3.org/1999/xlink" version="1.1"><rect x="0" y="0" width="900" height="600" fill="#e6e6e6"></rect><defs><linearGradient id="grad1_0" x1="33.3%" y1="0%" x2="100%" y2="100%"><stop offset="20%" stop-color="#e6e6e6" stop-opacity="1"></stop><stop offset="80%" stop-color="#e6e6e6" stop-opacity="1"></stop></linearGradient></defs><defs><linearGradient id="grad2_0" x1="0%" y1="0%" x2="66.7%" y2="100%"><stop offset="20%" stop-color="#e6e6e6" stop-opacity="1"></stop><stop offset="80%" stop-color="#e6e6e6" stop-opacity="1"></stop></linearGradient></defs><g transform="translate(900, 0)"><path d="M0 486.7C-56.8 450.8 -113.6 414.8 -157.7 380.6C-201.7 346.4 -232.9 314 -285.7 285.7C-338.4 257.4 -412.6 233.2 -449.7 186.3C-486.8 139.3 -486.8 69.7 -486.7 0L0 0Z" fill="#715DF2"></path></g><g transform="translate(0, 600)"><path d="M0 -486.7C67.6 -484 135.3 -481.3 186.3 -449.7C237.3 -418.1 271.7 -357.6 308.3 -308.3C344.9 -259 383.8 -221 413.9 -171.4C444 -121.9 465.4 -61 486.7 0L0 0Z" fill="#715DF2"></path></g></svg>