 <svg version="1.0" xmlns="http://www.w3.org/2000/svg" width="700.000000pt" height="476.000000pt" viewBox="0 0 700.000000 476.000000" preserveAspectRatio="xMidYMid meet">
<metadata>
Created by potrace 1.12, written by Peter Selinger 2001-2015
</metadata>
<g transform="translate(0.000000,476.000000) scale(0.100000,-0.100000)" fill="#000000" stroke="none">
<path d="M2020 4679 c-58 -5 -186 -12 -285 -16 -99 -4 -185 -11 -192 -16 -11
-7 -112 -22 -233 -34 -30 -3 -61 -10 -68 -16 -8 -6 -35 -14 -60 -19 -94 -15
-117 -21 -137 -34 -11 -8 -27 -14 -35 -14 -9 0 -40 -11 -68 -25 -29 -14 -58
-25 -66 -25 -8 0 -18 -5 -21 -10 -3 -6 -25 -19 -48 -30 -23 -11 -73 -40 -112
-65 -38 -24 -75 -44 -81 -45 -6 0 -21 -12 -35 -26 -13 -14 -37 -33 -54 -41
-38 -20 -177 -137 -231 -194 -23 -24 -56 -66 -74 -94 -19 -27 -42 -62 -52 -77
-10 -15 -18 -31 -18 -35 0 -4 -10 -30 -24 -58 -48 -101 -55 -125 -62 -219 -5
-68 -3 -100 5 -110 7 -8 9 -25 5 -40 -4 -18 -1 -33 8 -44 9 -9 18 -30 22 -46
9 -36 127 -156 153 -156 11 0 28 -7 39 -15 10 -8 32 -15 48 -15 17 0 60 -20
107 -50 43 -27 82 -50 87 -50 13 0 103 -49 126 -69 25 -22 56 -85 56 -114 0
-14 -7 -30 -15 -37 -8 -7 -15 -21 -15 -31 0 -19 -3 -27 -34 -86 -22 -43 -22
-165 1 -199 16 -24 15 -32 -1 -122 -10 -54 -21 -113 -26 -132 -14 -53 -16
-291 -3 -320 6 -14 14 -32 18 -40 10 -26 31 -59 49 -79 16 -17 16 -24 5 -58
-33 -102 -115 -238 -199 -328 -137 -148 -290 -353 -290 -389 0 -7 -7 -19 -15
-26 -8 -7 -15 -21 -15 -32 0 -10 -7 -30 -16 -44 -13 -19 -16 -48 -16 -128 1
-92 4 -109 31 -167 29 -63 77 -117 152 -172 42 -30 172 -92 215 -103 16 -4 34
-10 39 -14 6 -4 24 -10 40 -13 17 -3 50 -11 75 -17 25 -7 61 -16 80 -20 19 -4
58 -14 85 -20 52 -14 104 -23 220 -39 39 -6 88 -15 110 -20 22 -6 119 -13 215
-16 190 -7 470 -29 565 -44 33 -5 105 -17 160 -26 55 -10 136 -21 180 -25 44
-5 122 -13 174 -20 132 -15 725 -7 901 13 187 21 301 37 325 44 10 3 44 9 75
14 30 4 84 14 120 23 36 8 79 18 95 21 28 6 98 24 171 46 17 5 38 9 47 9 9 0
31 6 49 14 18 8 53 19 78 26 25 6 58 18 73 26 16 8 37 14 47 14 10 0 31 6 47
14 15 8 39 19 53 24 14 5 45 17 70 27 25 10 68 28 95 41 28 13 54 24 58 24 12
0 216 99 257 125 19 12 57 34 84 49 159 88 384 285 651 569 103 109 124 127
150 127 17 0 36 -5 42 -11 18 -18 225 4 244 27 6 8 17 14 23 14 18 0 70 60 94
108 12 23 22 60 22 82 0 21 4 41 8 44 12 7 9 161 -3 163 -5 2 -10 -10 -10 -25
0 -15 -4 -32 -8 -39 -4 -7 -10 -48 -14 -93 -6 -78 -7 -82 -42 -108 -57 -44
-89 -56 -143 -57 -43 0 -53 4 -70 26 -11 15 -23 41 -27 59 l-6 33 -70 3 c-107
4 -196 13 -240 24 -25 6 -484 10 -1220 10 -813 0 -1206 3 -1265 11 -47 6 -146
15 -220 20 -301 19 -412 28 -428 34 -9 4 -62 11 -117 16 -55 4 -154 15 -220
24 -66 8 -163 20 -215 25 -52 6 -144 17 -205 25 -60 9 -156 20 -213 25 -56 5
-107 12 -112 15 -12 7 -269 25 -520 35 -163 6 -284 23 -317 43 -6 4 -14 21
-17 39 -11 53 -27 242 -21 255 5 15 156 8 215 -9 19 -6 76 -14 125 -19 50 -4
142 -15 205 -24 63 -8 158 -20 210 -24 52 -5 106 -12 120 -16 32 -7 194 -25
330 -34 58 -4 112 -11 120 -14 8 -4 71 -12 140 -17 311 -24 388 -31 433 -40
26 -6 86 -10 132 -10 46 0 117 -5 157 -10 108 -15 309 -30 523 -40 105 -5 235
-14 290 -19 55 -6 164 -10 241 -11 78 0 164 -4 192 -10 28 -5 178 -10 334 -10
156 -1 324 -5 373 -11 50 -5 207 -14 350 -20 143 -5 305 -14 360 -19 55 -6
192 -14 305 -19 113 -5 214 -11 225 -13 14 -2 21 3 23 17 2 11 11 31 22 45 17
22 26 25 82 24 51 0 77 -7 128 -32 35 -18 67 -32 72 -32 4 0 8 42 8 94 l0 94
40 6 c22 3 59 9 83 12 23 3 46 10 52 15 5 5 17 9 27 9 21 0 69 25 115 59 39
29 83 91 133 186 41 79 62 111 101 150 21 23 39 44 39 49 0 4 -17 28 -38 54
-22 26 -58 85 -81 132 -59 117 -57 113 -69 135 -7 11 -15 27 -18 35 -45 111
-142 251 -192 278 -15 7 -34 19 -42 26 -8 7 -31 19 -50 26 -19 7 -41 18 -49
24 -7 6 -23 16 -35 23 -20 11 -30 17 -88 43 -31 14 -165 93 -223 130 -16 11
-43 27 -59 36 -16 9 -57 35 -90 59 -71 49 -176 119 -226 150 -19 12 -66 42
-105 67 -62 39 -104 65 -170 105 -11 7 -36 20 -55 30 -19 10 -49 28 -67 41
-17 12 -33 22 -36 22 -3 0 -29 16 -58 36 -30 20 -63 40 -74 45 -22 10 -46 24
-90 55 -16 11 -46 26 -65 34 -19 7 -42 19 -50 25 -8 7 -22 15 -30 19 -8 3 -28
15 -45 25 -16 11 -37 20 -46 20 -9 1 -22 7 -28 14 -6 8 -30 20 -53 27 -24 8
-50 20 -59 27 -8 7 -20 13 -26 13 -6 0 -24 6 -40 14 -28 14 -39 19 -123 51
-25 9 -53 21 -62 26 -10 5 -26 9 -36 9 -10 0 -27 7 -38 15 -10 8 -29 15 -41
15 -12 0 -25 5 -28 10 -3 6 -19 10 -34 10 -16 0 -34 6 -40 14 -7 8 -30 17 -51
20 -22 3 -58 9 -80 12 -21 3 -44 12 -51 20 -6 8 -26 14 -44 14 -18 0 -46 7
-61 15 -16 8 -46 15 -66 15 -20 0 -40 5 -43 10 -3 6 -23 10 -44 10 -21 0 -52
7 -67 15 -16 8 -48 15 -71 15 -23 0 -45 5 -48 10 -3 6 -31 10 -61 10 -31 0
-65 6 -77 12 -22 13 -104 23 -297 36 -58 4 -114 12 -125 19 -11 6 -86 14 -170
17 -82 3 -193 10 -245 15 -112 11 -422 11 -570 0z m644 -38 c3 -4 49 -11 103
-15 127 -8 220 -21 262 -37 24 -8 39 -9 51 -1 9 5 46 13 81 17 53 6 67 4 78
-9 10 -11 31 -16 71 -16 32 0 74 -7 93 -15 20 -8 59 -15 86 -15 27 0 53 -4 56
-10 3 -5 29 -10 57 -10 27 0 64 -6 81 -14 18 -8 50 -17 72 -19 52 -7 141 -30
151 -40 4 -4 26 -7 49 -7 26 0 48 -6 55 -15 7 -8 27 -15 46 -15 18 0 36 -4 39
-10 3 -5 21 -10 39 -10 19 0 39 -7 46 -15 7 -8 24 -15 39 -15 15 0 31 -4 37
-9 5 -5 42 -18 81 -31 40 -12 75 -26 78 -31 4 -5 17 -9 30 -9 13 0 27 -4 30
-10 3 -5 17 -10 29 -10 13 0 29 -7 36 -15 7 -8 20 -15 30 -15 10 0 23 -7 30
-15 7 -9 21 -13 31 -10 9 3 20 2 23 -3 3 -5 36 -23 73 -41 37 -18 75 -37 83
-42 8 -4 33 -17 55 -29 22 -11 54 -29 70 -39 17 -11 53 -31 80 -45 28 -14 68
-37 90 -51 22 -13 47 -28 55 -32 8 -3 28 -16 45 -27 37 -26 50 -34 111 -68 27
-16 66 -38 86 -50 20 -13 69 -43 110 -68 40 -25 115 -73 167 -107 52 -35 99
-63 104 -63 5 0 29 -18 54 -40 25 -22 50 -40 55 -40 5 0 33 -18 63 -40 30 -22
57 -40 59 -40 3 0 36 -19 73 -42 68 -41 140 -82 178 -101 11 -6 27 -14 35 -18
8 -5 33 -18 55 -29 179 -92 257 -156 304 -250 15 -30 34 -66 41 -80 27 -52 83
-164 94 -190 3 -8 12 -24 18 -35 7 -11 30 -46 50 -77 20 -32 38 -64 40 -71 1
-6 -12 -28 -30 -47 -17 -19 -39 -48 -47 -65 -9 -16 -28 -50 -42 -75 -14 -25
-30 -54 -37 -65 -41 -74 -133 -155 -174 -155 -11 0 -25 -7 -32 -15 -7 -9 -29
-15 -54 -15 -23 0 -46 -4 -52 -10 -5 -5 -25 -11 -44 -12 l-35 -3 0 48 0 47
-150 4 c-82 3 -163 9 -178 15 -16 6 -42 11 -59 11 -18 0 -57 7 -87 14 -60 16
-300 57 -366 63 -22 2 -116 11 -210 20 -212 20 -225 20 -1325 32 -498 6 -948
13 -1000 16 -52 4 -234 11 -405 16 -493 16 -672 28 -1085 74 -80 9 -179 20
-220 25 -41 4 -120 15 -175 24 -55 10 -133 21 -173 27 -40 5 -84 14 -98 19
-14 6 -45 10 -69 10 -61 0 -85 34 -85 122 0 35 4 68 9 74 12 12 61 150 68 189
6 42 -20 99 -60 129 -19 14 -39 26 -44 26 -6 0 -16 7 -23 15 -7 9 -19 14 -25
11 -7 -2 -17 0 -23 6 -12 12 -45 31 -89 52 -17 8 -36 23 -42 33 -6 13 -30 24
-68 32 -32 8 -77 22 -101 33 -48 21 -132 101 -132 126 0 8 -8 24 -18 35 -14
16 -17 39 -17 151 0 121 10 191 35 236 5 8 23 44 41 80 64 129 216 288 391
408 69 48 205 132 243 152 22 11 47 24 55 29 44 24 67 33 152 61 51 17 101 35
110 40 10 6 31 10 47 10 16 0 45 7 64 15 20 8 56 15 81 15 25 0 48 5 51 10 3
6 41 10 83 10 42 1 95 7 117 15 28 10 88 15 200 16 88 0 169 4 180 9 26 11
702 13 709 1z"></path>
<path d="M3143 4574 c-27 -11 -11 -24 28 -24 28 0 39 4 37 13 -5 13 -44 19
-65 11z"></path>
<path d="M3230 4540 c0 -5 22 -10 49 -10 35 0 51 -4 55 -16 4 -11 16 -14 41
-12 47 4 45 22 -2 26 -21 2 -42 8 -47 13 -13 12 -96 12 -96 -1z"></path>
<path d="M3437 4494 c-14 -14 6 -24 37 -18 25 4 35 2 39 -10 4 -10 19 -16 40
-16 18 0 42 -7 53 -15 10 -8 29 -15 41 -15 12 0 25 -4 28 -10 3 -5 21 -10 40
-10 20 0 35 -6 39 -15 3 -8 17 -15 31 -15 14 0 33 -4 43 -9 70 -34 149 -61
179 -61 12 0 23 -7 27 -15 3 -8 16 -15 29 -15 14 0 30 -6 36 -13 6 -8 30 -20
53 -27 24 -8 50 -20 59 -27 8 -7 23 -13 32 -13 16 0 36 -8 77 -32 8 -4 22 -11
30 -14 41 -16 66 -27 80 -35 8 -5 22 -12 30 -15 8 -3 22 -10 30 -15 31 -19 42
-21 52 -11 8 8 5 14 -13 22 -13 5 -31 14 -39 19 -22 13 -120 57 -160 71 -19 8
-42 19 -51 27 -8 7 -23 13 -31 13 -9 0 -39 11 -66 25 -28 14 -59 25 -70 25
-11 0 -22 7 -26 15 -3 8 -16 15 -30 15 -14 0 -28 5 -31 10 -3 6 -17 10 -29 10
-13 0 -29 7 -36 15 -7 8 -21 15 -31 15 -11 0 -42 11 -71 25 -28 14 -64 25 -79
25 -14 0 -32 7 -39 15 -7 8 -23 15 -36 15 -12 0 -26 5 -29 10 -3 6 -19 10 -34
10 -16 0 -34 7 -41 15 -7 9 -29 15 -51 15 -21 0 -41 5 -44 10 -7 11 -58 14
-68 4z"></path>
<path d="M4560 4056 c0 -8 100 -66 114 -66 7 0 19 -7 26 -15 7 -8 16 -15 21
-15 5 0 9 7 9 15 0 8 -4 15 -9 15 -6 0 -36 16 -68 35 -50 30 -93 44 -93 31z"></path>
<path d="M4770 3950 c0 -5 5 -10 11 -10 5 0 7 5 4 10 -3 6 -8 10 -11 10 -2 0
-4 -4 -4 -10z"></path>
<path d="M4820 3921 c0 -5 26 -21 58 -37 31 -16 61 -35 65 -41 4 -7 12 -13 18
-13 5 0 49 -25 98 -55 48 -30 99 -59 112 -65 31 -14 57 -29 96 -57 17 -13 34
-23 37 -23 3 0 26 -15 51 -32 26 -18 54 -37 64 -43 9 -5 30 -19 46 -30 49 -33
68 -44 101 -59 17 -8 34 -18 37 -24 4 -5 37 -24 74 -43 37 -19 73 -41 80 -49
9 -12 14 -13 25 -2 10 10 9 14 -10 18 -12 4 -22 11 -22 16 0 5 -19 18 -42 29
-24 11 -63 33 -88 49 -25 16 -52 33 -60 37 -8 3 -28 16 -45 27 -37 26 -61 41
-100 62 -16 9 -46 30 -66 45 -20 16 -40 29 -44 29 -4 0 -34 18 -67 40 -33 22
-65 40 -72 40 -6 0 -22 9 -36 20 -14 11 -30 20 -36 20 -6 0 -16 6 -23 13 -6 8
-37 26 -68 42 -32 16 -72 39 -90 52 -17 13 -38 23 -47 23 -8 0 -18 5 -21 10
-8 12 -25 13 -25 1z"></path>
<path d="M5824 3321 c10 -11 38 -29 64 -40 26 -12 61 -31 77 -41 17 -11 41
-25 55 -31 77 -33 211 -140 288 -229 181 -210 421 -422 515 -456 9 -4 17 -10
17 -15 0 -5 8 -9 18 -9 20 0 -54 69 -97 92 -50 25 -207 159 -281 240 -225 245
-339 348 -443 400 -25 13 -83 42 -128 66 -90 46 -111 52 -85 23z"></path>
<path d="M3425 2560 c-3 -5 -34 -10 -68 -10 -35 -1 -73 -7 -87 -15 -15 -9 -54
-14 -97 -15 -45 0 -73 -4 -73 -11 0 -10 31 -9 230 7 41 3 83 12 94 20 16 11
71 14 268 14 159 0 248 4 248 10 0 6 -91 10 -254 10 -159 0 -257 -4 -261 -10z"></path>
<path d="M3982 2538 c5 -15 108 -24 108 -10 0 12 -35 22 -78 22 -23 0 -32 -4
-30 -12z"></path>
<path d="M4140 2510 c0 -5 18 -10 40 -10 22 0 40 5 40 10 0 6 -18 10 -40 10
-22 0 -40 -4 -40 -10z"></path>
<path d="M2868 2493 c-16 -2 -28 -9 -28 -14 0 -5 50 -9 115 -9 105 0 140 8 99
24 -17 6 -141 6 -186 -1z"></path>
<path d="M4293 2493 c-22 -8 -14 -23 13 -23 15 0 24 5 22 12 -5 14 -18 18 -35
11z"></path>
<path d="M2470 2456 c0 -10 22 -14 98 -15 118 -1 212 8 212 20 0 5 -70 9 -155
9 -125 0 -155 -3 -155 -14z"></path>
<path d="M4370 2455 c0 -16 9 -19 34 -9 25 9 19 24 -9 24 -16 0 -25 -6 -25
-15z"></path>
<path d="M2048 2443 c-16 -2 -28 -9 -28 -14 0 -5 70 -9 166 -9 128 0 165 3
162 13 -4 9 -41 12 -139 13 -74 1 -146 -1 -161 -3z"></path>
<path d="M4470 2430 c0 -5 11 -10 25 -10 14 0 25 5 25 10 0 6 -11 10 -25 10
-14 0 -25 -4 -25 -10z"></path>
<path d="M1790 2410 c0 -6 33 -10 80 -10 47 0 80 4 80 10 0 6 -33 10 -80 10
-47 0 -80 -4 -80 -10z"></path>
<path d="M4562 2408 c7 -20 48 -23 48 -4 0 11 -9 16 -26 16 -16 0 -24 -5 -22
-12z"></path>
<path d="M4650 2380 c0 -5 14 -10 30 -10 17 0 30 5 30 10 0 6 -13 10 -30 10
-16 0 -30 -4 -30 -10z"></path>
<path d="M4745 2360 c-3 -5 0 -13 9 -16 21 -8 61 -1 61 11 0 14 -62 19 -70 5z"></path>
<path d="M4850 2330 c0 -5 11 -10 25 -10 14 0 25 5 25 10 0 6 -11 10 -25 10
-14 0 -25 -4 -25 -10z"></path>
</g>
</svg>